With: Martin Shaw, Rick Warden and Siobhan Finneran

De gedoemden nemen er niet langer genoegen mee om in de hel te branden en er is één man die ze moeten vernietigen om vrij te kunnen zijn; de predikant Father Jacob. Father Jacob is door het Vaticaan aangesteld als duiveluitbanner, een taak die hij tegen wil en dank op zich neemt en zwaarder blijkt dan hij ooit had durven denken. Als zijn leerling Vimal op brute wijze wordt vermoord, wordt het spel voor Jacob steeds gevaarlijker. Hij moet zijn weg zien te vinden tussen de angstaanjagende wereld van de demonen, het politieke en hiërarchische machtsspel van de kerk en de cynische politie van Londen en intussen vechten voor zijn leven…

Apparitions is a BBC drama about a priest, played by Martin Shaw, who examines evidence of miracles to be used in canonisation but also carries out exorcisms

------------------------ Dutch Friends ------------------------
---------------------------------------------------------------
- Bezoek ook eens mijn vrienden op:  http://www.Film-Test.nl --
----- voor mijn Nederlandse Sync. ondertitels ---- en meer ----
------- http://www.Film-Test.nl ---- voor Films en meer -------
---------------------------------------------------------------

General:

Complete name                    : Apparitions\01Apparitions.avi
Format                           : AVI
Format/Info                      : Audio Video Interleave
File size                        : 900 MiB
Duration                         : 55mn 58s
Overall bit rate                 : 2 247 Kbps

Video:

Format                           : MPEG-4 Visual
Format profile                   : Simple@L3
Format settings, BVOP            : No
Format settings, QPel            : No
Format settings, GMC             : No warppoints
Format settings, Matrix          : Default (H.263)
Codec ID                         : XVID
Codec ID/Hint                    : XviD
Duration                         : 55mn 58s
Bit rate                         : 1 789 Kbps
Width                            : 704 pixels
Height                           : 396 pixels
Display aspect ratio             : 16:9
Frame rate                       : 25.000 fps
Color space                      : YUV
Chroma subsampling               : 4:2:0
Bit depth                        : 8 bits
Scan type                        : Progressive
Compression mode                 : Lossy
Bits/(Pixel*Frame)               : 0.257
Stream size                      : 716 MiB (80%)
Writing library                  : XviD 1.1.2 (UTC 2006-11-01)

Audio:

Format                           : AC-3
Format/Info                      : Audio Coding 3
Mode extension                   : CM (complete main)
Codec ID                         : 2000
Duration                         : 55mn 58s
Bit rate mode                    : Constant
Bit rate                         : 448 Kbps
Channel(s)                       : 6 channels
Channel positions                : Front: L C R, Side: L R, LFE
Sampling rate                    : 48.0 KHz
Bit depth                        : 16 bits
Compression mode                 : Lossy
Stream size                      : 179 MiB (20%)
Alignment                        : Aligned on interleaves
Interleave, duration             : 32 ms (0.80 video frame)
Interleave, preload duration     : 256 ms

